<svg viewBox="0 0 64 64" width="64" height="64" xmlns="http://www.w3.org/2000/svg">
  <defs>
    <linearGradient id="csBorder" x1="0" y1="0" x2="1" y2="1">
      <stop offset="0%" stop-color="#0EA5E9"/>
      <stop offset="100%" stop-color="#7DD3FC"/>
    </linearGradient>
    <linearGradient id="csShield" x1="0" y1="0" x2="0" y2="1">
      <stop offset="0%" stop-color="#0C2D3F"/>
      <stop offset="100%" stop-color="#061520"/>
    </linearGradient>
    <radialGradient id="csGlowFill" cx="0.5" cy="0.5" r="0.5">
      <stop offset="0%" stop-color="rgba(56,189,248,0.15)"/>
      <stop offset="100%" stop-color="transparent"/>
    </radialGradient>
    <filter id="glow">
      <feDropShadow stdDeviation="3.5" flood-color="#38BDF8" flood-opacity="0.9"/>
    </filter>
  </defs>
  <rect width="64" height="64" rx="14" fill="#0D0B1E"/>
  <rect width="64" height="64" rx="14" fill="none" stroke="url(#csBorder)" stroke-width="1.5"/>
  <g filter="url(#glow)">
    <circle cx="32" cy="32" r="22" fill="none" stroke="#38BDF8" stroke-width="1" opacity="0.5"/>
    <path d="M32,10 L48,18 L48,34 Q48,46 32,54 Q16,46 16,34 L16,18 Z" fill="url(#csShield)" stroke="#38BDF8" stroke-width="1" stroke-opacity="0.6"/>
    <line x1="32" y1="17" x2="32" y2="25" stroke="#38BDF8" stroke-width="2" stroke-linecap="round"/>
    <line x1="32" y1="39" x2="32" y2="47" stroke="#38BDF8" stroke-width="2" stroke-linecap="round"/>
    <line x1="17" y1="32" x2="25" y2="32" stroke="#38BDF8" stroke-width="2" stroke-linecap="round"/>
    <line x1="39" y1="32" x2="47" y2="32" stroke="#38BDF8" stroke-width="2" stroke-linecap="round"/>
    <circle cx="32" cy="32" r="2.5" fill="#38BDF8"/>
    <circle cx="32" cy="32" r="8" fill="none" stroke="#38BDF8" stroke-width="1" stroke-opacity="0.7"/>
    <circle cx="32" cy="32" r="18" fill="url(#csGlowFill)"/>
    <polygon points="22,14 23.5,17 22,20 20.5,17" fill="#38BDF8" opacity="0.6"/>
    <polygon points="42,14 43.5,17 42,20 40.5,17" fill="#38BDF8" opacity="0.6"/>
  </g>
</svg>