<svg viewBox="0 0 64 64" width="64" height="64" xmlns="http://www.w3.org/2000/svg">
  <defs>
    <radialGradient id="fingerGradient" cx="0.3" cy="0.3" r="1">
      <stop offset="0%" stop-color="#DDD6FE"/>
      <stop offset="100%" stop-color="#6D28D9"/>
    </radialGradient>
    <linearGradient id="nailGradient" x1="0" y1="0" x2="0" y2="1">
      <stop offset="0%" stop-color="#F5F3FF"/>
      <stop offset="100%" stop-color="#A78BFA"/>
    </linearGradient>
    <filter id="glow">
      <feDropShadow stdDeviation="4" flood-color="#A78BFA" flood-opacity="0.75"/>
    </filter>
    <style>
      @keyframes pulseTap {
        0% { transform: scale(0.6); opacity: 0.8; }
        100% { transform: scale(1.3); opacity: 0; }
      }
    </style>
  </defs>
  <g filter="url(#glow)">
    <path d="M 22,54 C 20,54 19,52 19,50 L 19,26 C 19,18 24,12 32,12 C 40,12 45,18 45,26 L 45,50 C 45,52 44,54 42,54 Z" fill="url(#fingerGradient)"/>
    <path d="M 22,54 C 20,54 19,52 19,50 L 19,26 C 19,18 24,12 32,12 C 40,12 45,18 45,26 L 45,50 C 45,52 44,54 42,54 Z" fill="none" stroke="white" stroke-width="2" opacity="0.3" filter="url(#glow)"/>
    <path d="M 22,54 C 20,54 19,52 19,50 L 19,26 C 19,18 24,12 32,12 C 40,12 45,18 45,26 L 45,50 C 45,52 44,54 42,54 Z" fill="none" stroke="#4C1D95" stroke-width="2" opacity="0.25" filter="url(#glow)"/>
    <path d="M 21,34 Q 32,32 43,34" stroke="#4C1D95" opacity="0.4" stroke-width="1" fill="none"/>
    <path d="M 21,44 Q 32,42 43,44" stroke="#4C1D95" opacity="0.3" stroke-width="1" fill="none"/>
    <path d="M 25,13 C 25,11 28,10 32,10 C 36,10 39,11 39,13 L 39,21 C 39,23 36,24 32,24 C 28,24 25,23 25,21 Z" fill="url(#nailGradient)"/>
    <path d="M 27,11 C 29,10 35,10 37,11" stroke="white" stroke-width="1" opacity="0.6" fill="none"/>
  </g>
  <circle cx="32" cy="10" r="8" fill="none" stroke="#C4B5FD" stroke-width="2" stroke-dasharray="3 3" opacity="0.7" style="animation: pulseTap 1.5s ease-out infinite; transform-origin: 32px 10px;"/>
  <circle cx="32" cy="10" r="14" fill="none" stroke="#A78BFA" stroke-width="1.5" stroke-dasharray="4 4" opacity="0.45" style="animation: pulseTap 1.5s ease-out 0.3s infinite; transform-origin: 32px 10px;"/>
  <circle cx="32" cy="10" r="20" fill="none" stroke="#7C3AED" stroke-width="1" stroke-dasharray="5 5" opacity="0.25" style="animation: pulseTap 1.5s ease-out 0.6s infinite; transform-origin: 32px 10px;"/>
  <polygon points="46,8 48,10 46,12 44,10" fill="#FCD34D"/>
  <circle cx="18" cy="14" r="2" fill="#C4B5FD"/>
  <polygon points="50,30 52,32 50,34 48,32" fill="#A78BFA"/>
  <circle cx="14" cy="36" r="1.5" fill="#7C3AED"/>
</svg>