<svg viewBox="0 0 300 120" width="300" height="120" xmlns="http://www.w3.org/2000/svg">
  <defs>
    <linearGradient id="ak47_receiverGradient" x1="0" y1="0" x2="0" y2="1">
      <stop offset="0%" stop-color="#6B4226"/>
      <stop offset="100%" stop-color="#4A2D15"/>
    </linearGradient>
    <filter id="ak47_glow" x="-50%" y="-50%" width="200%" height="200%">
      <feDropShadow dx="0" dy="0" stdDeviation="8" flood-color="#EAB308" flood-opacity="0.3"/>
    </filter>
  </defs>
  <g filter="url(#ak47_glow)">
    <rect x="5" y="56" width="100" height="8" rx="1" fill="#5C3A1E" stroke="#7B4F28" stroke-width="0.5"/>
    <rect x="20" y="50" width="75" height="5" rx="2" fill="#4A3020"/>
    <rect x="0" y="52" width="15" height="16" rx="1" fill="#3D2810"/>
    <circle cx="5" cy="60" r="1" fill="#2D1810"/>
    <circle cx="10" cy="60" r="1" fill="#2D1810"/>
    <rect x="85" y="44" width="5" height="12" rx="1" fill="#5C3A1E"/>
    <rect x="95" y="47" width="90" height="26" rx="2" fill="url(#ak47_receiverGradient)" stroke="#7B4F28" stroke-width="0.5"/>
    <rect x="95" y="45" width="90" height="10" rx="2" fill="#7B4F28"/>
    <rect x="160" y="43" width="12" height="7" rx="1" fill="#5C3A1E"/>
    <path d="M125,73 Q125,105 133,108 L155,108 Q163,105 163,73 Z" fill="#8B6914" stroke="#A07820" stroke-width="1"/>
    <path d="M130,75 Q130,102 136,104" stroke="#C8A830" stroke-width="1.5" fill="none" opacity="0.6"/>
    <path d="M185,62 L185,95 L200,98 L205,62 Z" fill="#4A2D15" stroke="#5C3A1E" stroke-width="0.5"/>
    <path d="M185,48 L240,46 L248,50 L252,66 L248,70 L240,72 L185,72 Z" fill="#8B4513"/>
    <path d="M190,50 L230,48" stroke="#6B350F" stroke-width="0.8" opacity="0.5"/>
    <path d="M190,54 L230,52" stroke="#6B350F" stroke-width="0.8" opacity="0.5"/>
    <path d="M190,58 L230,56" stroke="#6B350F" stroke-width="0.8" opacity="0.5"/>
    <path d="M170,72 Q167,85 178,85 L183,73" stroke="#5C3A1E" stroke-width="2" fill="none"/>
  </g>
</svg>