<svg viewBox="0 0 320 100" width="320" height="100" xmlns="http://www.w3.org/2000/svg">
  <defs>
    <linearGradient id="sniper_scopeGradient" x1="0%" y1="0%" x2="0%" y2="100%">
      <stop offset="0%" style="stop-color:#4A5568;stop-opacity:1" />
      <stop offset="100%" style="stop-color:#2D3340;stop-opacity:1" />
    </linearGradient>
    <radialGradient id="sniper_lensGradient" cx="50%" cy="50%" r="50%" fx="50%" fy="50%">
      <stop offset="0%" style="stop-color:#7DD3FC;stop-opacity:1" />
      <stop offset="100%" style="stop-color:#1E3A5F;stop-opacity:1" />
    </radialGradient>
    <filter id="sniper_scopeGlow" x="-50%" y="-50%" width="200%" height="200%">
      <feDropShadow dx="0" dy="0" stdDeviation="5" flood-color="#60A5FA" flood-opacity="0.4"/>
    </filter>
    <filter id="sniper_lensGlow" x="-50%" y="-50%" width="200%" height="200%">
      <feDropShadow dx="0" dy="0" stdDeviation="4" flood-color="#93C5FD" flood-opacity="0.6"/>
    </filter>
  </defs>
  <rect x="5" y="47" width="160" height="6" rx="1" fill="#3D4451" stroke="#5A6272" stroke-width="0.5"/>
  <rect x="0" y="44" width="18" height="12" rx="2" fill="#2D3340"/>
  <rect x="165" y="41" width="50" height="18" rx="3" fill="#3D4451"/>
  <rect x="80" y="38" width="85" height="5" rx="1" fill="#4A5568"/>
  <rect x="85" y="26" width="75" height="18" rx="6" fill="url(#sniper_scopeGradient)" stroke="#606878" stroke-width="1" filter="url(#sniper_scopeGlow)"/>
  <circle cx="92" cy="35" r="7" fill="url(#sniper_lensGradient)" stroke="#60A5FA" stroke-width="1.5" filter="url(#sniper_lensGlow)"/>
  <circle cx="158" cy="35" r="5.5" fill="url(#sniper_lensGradient)" stroke="#60A5FA" stroke-width="1" filter="url(#sniper_lensGlow)"/>
  <rect x="120" y="26" width="8" height="4" rx="1" fill="#718096"/>
  <polygon points="215,54 215,85 228,85 232,54" fill="#2D3340" stroke="#3D4451" stroke-width="0.5"/>
  <path d="M215,41 L265,39 L278,43 L282,57 L278,61 L265,61 L215,59 Z" fill="#3D4451"/>
  <rect x="240" y="38" width="35" height="8" rx="2" fill="#1A1F2E"/>
  <rect x="185" y="59" width="20" height="22" rx="2" fill="#2D3340"/>
</svg>